<?xml version="1.0" encoding="utf-8"?>
<!-- Generator: Adobe Illustrator 27.5.0, SVG Export Plug-In . SVG Version: 6.00 Build 0)  -->
<svg version="1.1" id="Layer_1" xmlns="http://www.w3.org/2000/svg" xmlns:xlink="http://www.w3.org/1999/xlink" x="0px" y="0px"
	 viewBox="0 0 5000 2916" style="enable-background:new 0 0 5000 2916;" xml:space="preserve">
<g>
	<g>
		<defs>
			<rect id="SVGID_1_" x="0" width="5000" height="2916"/>
		</defs>
		<clipPath id="SVGID_00000147929554698623418180000017128593367368358037_">
			<use xlink:href="#SVGID_1_"  style="overflow:visible;"/>
		</clipPath>
		
			<linearGradient id="SVGID_00000034775399687264026260000014236321924676194951_" gradientUnits="userSpaceOnUse" x1="-4.9591" y1="2907.4294" x2="5127.5098" y2="-62.3401">
			<stop  offset="0" style="stop-color:#00CCFF"/>
			<stop  offset="1" style="stop-color:#000066"/>
		</linearGradient>
		
			<rect x="0" style="clip-path:url(#SVGID_00000147929554698623418180000017128593367368358037_);fill:url(#SVGID_00000034775399687264026260000014236321924676194951_);" width="5000" height="2916"/>
	</g>
	<g>
		<defs>
			<path id="SVGID_00000089567900963482549020000005950798927806113430_" d="M1464.836,640.035
				c242.462,0,439.016,196.621,439.016,439.166c0,242.544-196.553,439.167-439.016,439.167s-439.016-196.623-439.016-439.167
				C1025.821,836.656,1222.374,640.035,1464.836,640.035"/>
		</defs>
		<clipPath id="SVGID_00000025443219246609859960000018154861553081139849_">
			<use xlink:href="#SVGID_00000089567900963482549020000005950798927806113430_"  style="overflow:visible;"/>
		</clipPath>
		
			<linearGradient id="SVGID_00000056389903152697832940000006557633950054547883_" gradientUnits="userSpaceOnUse" x1="937.6646" y1="1257.0302" x2="2017.8027" y2="892.6723">
			<stop  offset="0" style="stop-color:#00CCFF"/>
			<stop  offset="1" style="stop-color:#000066"/>
		</linearGradient>
		
			<rect x="1025.821" y="640.035" style="opacity:0.29;clip-path:url(#SVGID_00000025443219246609859960000018154861553081139849_);fill:url(#SVGID_00000056389903152697832940000006557633950054547883_);" width="878.031" height="878.333"/>
	</g>
	<g>
		<defs>
			<path id="SVGID_00000116195762407725232650000011967427612130744253_" d="M4398.447,1930.846
				c186.948,0,338.5,151.604,338.5,338.617c0,187.015-151.552,338.618-338.5,338.618c-186.951,0-338.504-151.604-338.504-338.618
				C4059.943,2082.45,4211.496,1930.846,4398.447,1930.846"/>
		</defs>
		<clipPath id="SVGID_00000052819389232925249690000011290206679470769589_">
			<use xlink:href="#SVGID_00000116195762407725232650000011967427612130744253_"  style="overflow:visible;"/>
		</clipPath>
		
			<linearGradient id="SVGID_00000083770932168643041260000011542892052126194859_" gradientUnits="userSpaceOnUse" x1="3991.9719" y1="2406.5691" x2="4824.8428" y2="2125.6382">
			<stop  offset="0" style="stop-color:#00CCFF"/>
			<stop  offset="1" style="stop-color:#000066"/>
		</linearGradient>
		
			<rect x="4059.943" y="1930.846" style="opacity:0.29;clip-path:url(#SVGID_00000052819389232925249690000011290206679470769589_);fill:url(#SVGID_00000083770932168643041260000011542892052126194859_);" width="677.004" height="677.235"/>
	</g>
	<g>
		<defs>
			<path id="SVGID_00000161623960317353309160000004050665064969748896_" d="M3414.01,1559.396
				c230.978,0,418.226,187.309,418.226,418.369c0,231.059-187.248,418.369-418.226,418.369
				c-230.98,0-418.226-187.311-418.226-418.369C2995.784,1746.705,3183.03,1559.396,3414.01,1559.396"/>
		</defs>
		<clipPath id="SVGID_00000072252280085012429330000000095493453221386380_">
			<use xlink:href="#SVGID_00000161623960317353309160000004050665064969748896_"  style="overflow:visible;"/>
		</clipPath>
		
			<linearGradient id="SVGID_00000093859079225587736630000000156640633872665002_" gradientUnits="userSpaceOnUse" x1="2911.7988" y1="2147.2019" x2="3940.7769" y2="1800.0439">
			<stop  offset="0" style="stop-color:#00CCFF"/>
			<stop  offset="1" style="stop-color:#000066"/>
		</linearGradient>
		
			<rect x="2995.784" y="1559.396" style="opacity:0.29;clip-path:url(#SVGID_00000072252280085012429330000000095493453221386380_);fill:url(#SVGID_00000093859079225587736630000000156640633872665002_);" width="836.452" height="836.738"/>
	</g>
	<g>
		<defs>
			<path id="SVGID_00000147922237243786993450000010719836661931276959_" d="M4075.136,393.755
				c242.462,0,439.015,196.621,439.015,439.167c0,242.544-196.553,439.167-439.015,439.167
				c-242.464,0-439.016-196.623-439.016-439.167C3636.12,590.375,3832.672,393.755,4075.136,393.755"/>
		</defs>
		<clipPath id="SVGID_00000073000446772221854330000013881498918703960474_">
			<use xlink:href="#SVGID_00000147922237243786993450000010719836661931276959_"  style="overflow:visible;"/>
		</clipPath>
		
			<linearGradient id="SVGID_00000127737298235530427240000017387117766392632237_" gradientUnits="userSpaceOnUse" x1="3547.9644" y1="1010.7496" x2="4628.1006" y2="646.3918">
			<stop  offset="0" style="stop-color:#00CCFF"/>
			<stop  offset="1" style="stop-color:#000066"/>
		</linearGradient>
		
			<rect x="3636.12" y="393.755" style="opacity:0.29;clip-path:url(#SVGID_00000073000446772221854330000013881498918703960474_);fill:url(#SVGID_00000127737298235530427240000017387117766392632237_);" width="878.031" height="878.333"/>
	</g>
	<g>
		<defs>
			<path id="SVGID_00000052804481962324286080000013449258572244080523_" d="M2231.15,1584.009
				c130.3,0,235.931,105.668,235.931,236.015c0,130.346-105.631,236.012-235.931,236.012
				c-130.303,0-235.934-105.666-235.934-236.012C1995.215,1689.677,2100.846,1584.009,2231.15,1584.009"/>
		</defs>
		<clipPath id="SVGID_00000165201279805275756190000015727763488555453611_">
			<use xlink:href="#SVGID_00000052804481962324286080000013449258572244080523_"  style="overflow:visible;"/>
		</clipPath>
		
			<linearGradient id="SVGID_00000177451449858926713870000004728805595536419481_" gradientUnits="userSpaceOnUse" x1="1947.8387" y1="1915.5948" x2="2528.2991" y2="1719.781">
			<stop  offset="0" style="stop-color:#00CCFF"/>
			<stop  offset="1" style="stop-color:#000066"/>
		</linearGradient>
		
			<rect x="1995.215" y="1584.009" style="opacity:0.29;clip-path:url(#SVGID_00000165201279805275756190000015727763488555453611_);fill:url(#SVGID_00000177451449858926713870000004728805595536419481_);" width="471.865" height="472.027"/>
	</g>
	<g>
		<defs>
			<path id="SVGID_00000096059256058482577420000010944495551566384274_" d="M815.912,1904.144
				c96.313,0,174.389,78.104,174.389,174.45c0,96.348-78.077,174.452-174.389,174.452c-96.315,0-174.391-78.104-174.391-174.452
				C641.521,1982.249,719.597,1904.144,815.912,1904.144"/>
		</defs>
		<clipPath id="SVGID_00000071521007703158969900000008161504215424921771_">
			<use xlink:href="#SVGID_00000096059256058482577420000010944495551566384274_"  style="overflow:visible;"/>
		</clipPath>
		
			<linearGradient id="SVGID_00000023258471011664326600000011202517301782182028_" gradientUnits="userSpaceOnUse" x1="606.5021" y1="2149.2351" x2="1035.5441" y2="2004.5063">
			<stop  offset="0" style="stop-color:#00CCFF"/>
			<stop  offset="1" style="stop-color:#000066"/>
		</linearGradient>
		
			<rect x="641.521" y="1904.144" style="opacity:0.29;clip-path:url(#SVGID_00000071521007703158969900000008161504215424921771_);fill:url(#SVGID_00000023258471011664326600000011202517301782182028_);" width="348.78" height="348.902"/>
	</g>
	<g>
		<defs>
			<path id="SVGID_00000157282859726757550540000000065797592587185794_" d="M2649.557,494.321
				c131.998,0,239.003,107.041,239.003,239.082c0,132.042-107.005,239.085-239.003,239.085
				c-131.995,0-238.999-107.042-238.999-239.085C2410.558,601.362,2517.562,494.321,2649.557,494.321"/>
		</defs>
		<clipPath id="SVGID_00000031909778249242758150000017731483193056145330_">
			<use xlink:href="#SVGID_00000157282859726757550540000000065797592587185794_"  style="overflow:visible;"/>
		</clipPath>
		
			<linearGradient id="SVGID_00000155828625967262575360000004180707555164531346_" gradientUnits="userSpaceOnUse" x1="2362.5686" y1="830.1917" x2="2950.5981" y2="631.8788">
			<stop  offset="0" style="stop-color:#00CCFF"/>
			<stop  offset="1" style="stop-color:#000066"/>
		</linearGradient>
		
			<rect x="2410.558" y="494.321" style="opacity:0.29;clip-path:url(#SVGID_00000031909778249242758150000017731483193056145330_);fill:url(#SVGID_00000155828625967262575360000004180707555164531346_);" width="478.002" height="478.167"/>
	</g>
	<g>
		<defs>
			<path id="SVGID_00000047764216209515593830000000246367828520318373_" d="M2728.748,2293.06
				c107.181,0,194.07,86.917,194.07,194.136c0,107.221-86.889,194.138-194.07,194.138c-107.185,0-194.072-86.917-194.072-194.138
				C2534.676,2379.976,2621.563,2293.06,2728.748,2293.06"/>
		</defs>
		<clipPath id="SVGID_00000077301008381509687380000002570521411585035145_">
			<use xlink:href="#SVGID_00000047764216209515593830000000246367828520318373_"  style="overflow:visible;"/>
		</clipPath>
		
			<linearGradient id="SVGID_00000057863884348187138130000004434552852940651405_" gradientUnits="userSpaceOnUse" x1="2495.7073" y1="2565.7976" x2="2973.187" y2="2404.751">
			<stop  offset="0" style="stop-color:#00CCFF"/>
			<stop  offset="1" style="stop-color:#000066"/>
		</linearGradient>
		
			<rect x="2534.676" y="2293.06" style="opacity:0.29;clip-path:url(#SVGID_00000077301008381509687380000002570521411585035145_);fill:url(#SVGID_00000057863884348187138130000004434552852940651405_);" width="388.142" height="388.275"/>
	</g>
	<g>
		<defs>
			<path id="SVGID_00000106139018790549028350000005158040072782717330_" d="M1583.821,2296.958
				c107.183,0,194.073,86.918,194.073,194.139c0,107.219-86.891,194.138-194.073,194.138c-107.181,0-194.072-86.92-194.072-194.138
				C1389.749,2383.876,1476.64,2296.958,1583.821,2296.958"/>
		</defs>
		<clipPath id="SVGID_00000073000140105190391570000014322095663123197621_">
			<use xlink:href="#SVGID_00000106139018790549028350000005158040072782717330_"  style="overflow:visible;"/>
		</clipPath>
		
			<linearGradient id="SVGID_00000055669293104834524530000010087010932945198497_" gradientUnits="userSpaceOnUse" x1="1350.78" y1="2569.6982" x2="1828.2598" y2="2408.6516">
			<stop  offset="0" style="stop-color:#00CCFF"/>
			<stop  offset="1" style="stop-color:#000066"/>
		</linearGradient>
		
			<rect x="1389.749" y="2296.958" style="opacity:0.29;clip-path:url(#SVGID_00000073000140105190391570000014322095663123197621_);fill:url(#SVGID_00000055669293104834524530000010087010932945198497_);" width="388.145" height="388.277"/>
	</g>
	<g>
		<defs>
			<path id="SVGID_00000053533839664798694490000004699457395099143049_" d="M566.29,174.175
				c130.303,0,235.934,105.669,235.934,236.015S696.594,646.202,566.29,646.202c-130.302,0-235.932-105.666-235.932-236.012
				S435.988,174.175,566.29,174.175"/>
		</defs>
		<clipPath id="SVGID_00000149380735646888588250000009924747966797324686_">
			<use xlink:href="#SVGID_00000053533839664798694490000004699457395099143049_"  style="overflow:visible;"/>
		</clipPath>
		
			<linearGradient id="SVGID_00000030454035537130156430000001892939413632011966_" gradientUnits="userSpaceOnUse" x1="282.9809" y1="505.7607" x2="863.4412" y2="309.947">
			<stop  offset="0" style="stop-color:#00CCFF"/>
			<stop  offset="1" style="stop-color:#000066"/>
		</linearGradient>
		
			<rect x="330.358" y="174.175" style="opacity:0.29;clip-path:url(#SVGID_00000149380735646888588250000009924747966797324686_);fill:url(#SVGID_00000030454035537130156430000001892939413632011966_);" width="471.867" height="472.027"/>
	</g>
</g>
</svg>
